<mxfile host="app.diagrams.net" modified="2024-03-17T09:15:10.353Z" agent="Mozilla/5.0 (Windows NT 10.0; Win64; x64) AppleWebKit/537.36 (KHTML, like Gecko) Chrome/122.0.0.0 Safari/537.36" etag="UZBjraEcmb_PxWRQxUly" version="24.0.7" type="device" pages="2">
  <diagram name="DFD Context Diagram" id="sOYuYiNvqICNxtZ5SWUy">
    <mxGraphModel dx="733" dy="362" grid="1" gridSize="10" guides="1" tooltips="1" connect="1" arrows="1" fold="1" page="1" pageScale="1" pageWidth="850" pageHeight="1100" math="0" shadow="0">
      <root>
        <mxCell id="0" />
        <mxCell id="1" parent="0" />
        <mxCell id="IPHOlqk-Z1_VAssd5sBr-7" style="edgeStyle=orthogonalEdgeStyle;rounded=0;orthogonalLoop=1;jettySize=auto;html=1;exitX=1;exitY=0.5;exitDx=0;exitDy=0;entryX=0.5;entryY=0;entryDx=0;entryDy=0;" edge="1" parent="1" source="IPHOlqk-Z1_VAssd5sBr-1" target="IPHOlqk-Z1_VAssd5sBr-2">
          <mxGeometry relative="1" as="geometry" />
        </mxCell>
        <mxCell id="IPHOlqk-Z1_VAssd5sBr-1" value="MAHASISWA" style="html=1;dashed=0;whiteSpace=wrap;fillColor=#dae8fc;strokeColor=#6c8ebf;" vertex="1" parent="1">
          <mxGeometry x="130" y="80" width="100" height="50" as="geometry" />
        </mxCell>
        <mxCell id="IPHOlqk-Z1_VAssd5sBr-9" style="edgeStyle=orthogonalEdgeStyle;rounded=0;orthogonalLoop=1;jettySize=auto;html=1;entryX=0.5;entryY=1;entryDx=0;entryDy=0;" edge="1" parent="1" source="IPHOlqk-Z1_VAssd5sBr-2" target="IPHOlqk-Z1_VAssd5sBr-1">
          <mxGeometry relative="1" as="geometry" />
        </mxCell>
        <mxCell id="IPHOlqk-Z1_VAssd5sBr-13" style="edgeStyle=orthogonalEdgeStyle;rounded=0;orthogonalLoop=1;jettySize=auto;html=1;exitX=0.5;exitY=1;exitDx=0;exitDy=0;entryX=0.299;entryY=1.005;entryDx=0;entryDy=0;entryPerimeter=0;" edge="1" parent="1" target="IPHOlqk-Z1_VAssd5sBr-3">
          <mxGeometry relative="1" as="geometry">
            <mxPoint x="470" y="270" as="sourcePoint" />
            <mxPoint x="705" y="240" as="targetPoint" />
            <Array as="points">
              <mxPoint x="470" y="280" />
              <mxPoint x="650" y="280" />
              <mxPoint x="650" y="262" />
            </Array>
          </mxGeometry>
        </mxCell>
        <mxCell id="IPHOlqk-Z1_VAssd5sBr-18" style="edgeStyle=orthogonalEdgeStyle;rounded=0;orthogonalLoop=1;jettySize=auto;html=1;exitX=0;exitY=1;exitDx=0;exitDy=0;entryX=0.25;entryY=1;entryDx=0;entryDy=0;" edge="1" parent="1" source="IPHOlqk-Z1_VAssd5sBr-2" target="IPHOlqk-Z1_VAssd5sBr-1">
          <mxGeometry relative="1" as="geometry" />
        </mxCell>
        <mxCell id="IPHOlqk-Z1_VAssd5sBr-2" value="SISTEM INFORMASI&lt;div&gt;KELAS&lt;/div&gt;" style="shape=ellipse;html=1;dashed=0;whiteSpace=wrap;aspect=fixed;perimeter=ellipsePerimeter;strokeWidth=2;" vertex="1" parent="1">
          <mxGeometry x="380" y="180" width="110" height="110" as="geometry" />
        </mxCell>
        <mxCell id="IPHOlqk-Z1_VAssd5sBr-11" style="edgeStyle=orthogonalEdgeStyle;rounded=0;orthogonalLoop=1;jettySize=auto;html=1;exitX=0;exitY=0.5;exitDx=0;exitDy=0;" edge="1" parent="1" source="IPHOlqk-Z1_VAssd5sBr-3" target="IPHOlqk-Z1_VAssd5sBr-2">
          <mxGeometry relative="1" as="geometry" />
        </mxCell>
        <mxCell id="IPHOlqk-Z1_VAssd5sBr-3" value="DOSEN" style="html=1;dashed=0;whiteSpace=wrap;fillColor=#f8cecc;strokeColor=#b85450;" vertex="1" parent="1">
          <mxGeometry x="620" y="210" width="100" height="50" as="geometry" />
        </mxCell>
        <mxCell id="IPHOlqk-Z1_VAssd5sBr-5" style="edgeStyle=orthogonalEdgeStyle;rounded=0;orthogonalLoop=1;jettySize=auto;html=1;exitX=0.5;exitY=1;exitDx=0;exitDy=0;" edge="1" parent="1" source="IPHOlqk-Z1_VAssd5sBr-3" target="IPHOlqk-Z1_VAssd5sBr-3">
          <mxGeometry relative="1" as="geometry" />
        </mxCell>
        <mxCell id="IPHOlqk-Z1_VAssd5sBr-16" style="edgeStyle=orthogonalEdgeStyle;rounded=0;orthogonalLoop=1;jettySize=auto;html=1;exitX=0.5;exitY=1;exitDx=0;exitDy=0;entryX=0.699;entryY=1.013;entryDx=0;entryDy=0;entryPerimeter=0;" edge="1" parent="1" source="IPHOlqk-Z1_VAssd5sBr-2" target="IPHOlqk-Z1_VAssd5sBr-3">
          <mxGeometry relative="1" as="geometry" />
        </mxCell>
        <mxCell id="IPHOlqk-Z1_VAssd5sBr-25" value="&lt;font style=&quot;font-size: 10px;&quot;&gt;Data Nilai&lt;/font&gt;&lt;div style=&quot;font-size: 10px;&quot;&gt;&lt;font style=&quot;font-size: 10px;&quot;&gt;Data Absen&lt;/font&gt;&lt;/div&gt;" style="text;html=1;align=center;verticalAlign=middle;resizable=0;points=[];autosize=1;strokeColor=none;fillColor=none;rotation=0;" vertex="1" parent="1">
          <mxGeometry x="509" y="193" width="80" height="40" as="geometry" />
        </mxCell>
        <mxCell id="IPHOlqk-Z1_VAssd5sBr-26" value="&lt;font style=&quot;font-size: 10px;&quot;&gt;Data Mahasiswa&lt;/font&gt;" style="text;html=1;align=center;verticalAlign=middle;resizable=0;points=[];autosize=1;strokeColor=none;fillColor=none;" vertex="1" parent="1">
          <mxGeometry x="275" y="80" width="100" height="30" as="geometry" />
        </mxCell>
        <mxCell id="IPHOlqk-Z1_VAssd5sBr-27" value="&lt;font style=&quot;font-size: 10px;&quot;&gt;Data Nilai&lt;/font&gt;" style="text;html=1;align=center;verticalAlign=middle;resizable=0;points=[];autosize=1;strokeColor=none;fillColor=none;" vertex="1" parent="1">
          <mxGeometry x="222" y="212" width="70" height="30" as="geometry" />
        </mxCell>
        <mxCell id="IPHOlqk-Z1_VAssd5sBr-28" value="&lt;font style=&quot;font-size: 10px;&quot;&gt;Data Absen&lt;/font&gt;" style="text;html=1;align=center;verticalAlign=middle;resizable=0;points=[];autosize=1;strokeColor=none;fillColor=none;" vertex="1" parent="1">
          <mxGeometry x="218" y="251" width="80" height="30" as="geometry" />
        </mxCell>
        <mxCell id="IPHOlqk-Z1_VAssd5sBr-29" value="&lt;font style=&quot;font-size: 10px;&quot;&gt;Laporan Nilai&lt;/font&gt;" style="text;html=1;align=center;verticalAlign=middle;resizable=0;points=[];autosize=1;strokeColor=none;fillColor=none;" vertex="1" parent="1">
          <mxGeometry x="512" y="258" width="80" height="30" as="geometry" />
        </mxCell>
        <mxCell id="IPHOlqk-Z1_VAssd5sBr-30" value="&lt;font style=&quot;font-size: 10px;&quot;&gt;Laporan Sistem&lt;/font&gt;" style="text;html=1;align=center;verticalAlign=middle;resizable=0;points=[];autosize=1;strokeColor=none;fillColor=none;" vertex="1" parent="1">
          <mxGeometry x="511" y="303" width="90" height="30" as="geometry" />
        </mxCell>
        <mxCell id="IPHOlqk-Z1_VAssd5sBr-37" style="edgeStyle=orthogonalEdgeStyle;rounded=0;orthogonalLoop=1;jettySize=auto;html=1;entryX=0;entryY=0.5;entryDx=0;entryDy=0;" edge="1" parent="1" source="IPHOlqk-Z1_VAssd5sBr-32" target="IPHOlqk-Z1_VAssd5sBr-34">
          <mxGeometry relative="1" as="geometry" />
        </mxCell>
        <mxCell id="IPHOlqk-Z1_VAssd5sBr-42" style="edgeStyle=orthogonalEdgeStyle;rounded=0;orthogonalLoop=1;jettySize=auto;html=1;entryX=0;entryY=0.5;entryDx=0;entryDy=0;" edge="1" parent="1" source="IPHOlqk-Z1_VAssd5sBr-32" target="IPHOlqk-Z1_VAssd5sBr-35">
          <mxGeometry relative="1" as="geometry">
            <Array as="points">
              <mxPoint x="170" y="615" />
            </Array>
          </mxGeometry>
        </mxCell>
        <mxCell id="IPHOlqk-Z1_VAssd5sBr-32" value="MAHASISWA" style="html=1;dashed=0;whiteSpace=wrap;fillColor=#dae8fc;strokeColor=#6c8ebf;" vertex="1" parent="1">
          <mxGeometry x="118" y="430" width="100" height="50" as="geometry" />
        </mxCell>
        <mxCell id="IPHOlqk-Z1_VAssd5sBr-40" style="edgeStyle=orthogonalEdgeStyle;rounded=0;orthogonalLoop=1;jettySize=auto;html=1;entryX=1;entryY=0.5;entryDx=0;entryDy=0;" edge="1" parent="1" source="IPHOlqk-Z1_VAssd5sBr-33" target="IPHOlqk-Z1_VAssd5sBr-35">
          <mxGeometry relative="1" as="geometry" />
        </mxCell>
        <mxCell id="IPHOlqk-Z1_VAssd5sBr-33" value="DOSEN" style="html=1;dashed=0;whiteSpace=wrap;fillColor=#f8cecc;strokeColor=#b85450;" vertex="1" parent="1">
          <mxGeometry x="630" y="590" width="100" height="50" as="geometry" />
        </mxCell>
        <mxCell id="IPHOlqk-Z1_VAssd5sBr-38" style="edgeStyle=orthogonalEdgeStyle;rounded=0;orthogonalLoop=1;jettySize=auto;html=1;exitX=0.25;exitY=0;exitDx=0;exitDy=0;" edge="1" parent="1" source="IPHOlqk-Z1_VAssd5sBr-33">
          <mxGeometry relative="1" as="geometry">
            <mxPoint x="490" y="476" as="targetPoint" />
            <Array as="points">
              <mxPoint x="655" y="476" />
            </Array>
          </mxGeometry>
        </mxCell>
        <mxCell id="IPHOlqk-Z1_VAssd5sBr-34" value="1&lt;div&gt;ABSEN&lt;/div&gt;" style="shape=ellipse;html=1;dashed=0;whiteSpace=wrap;aspect=fixed;perimeter=ellipsePerimeter;strokeWidth=2;" vertex="1" parent="1">
          <mxGeometry x="390" y="400" width="110" height="110" as="geometry" />
        </mxCell>
        <mxCell id="IPHOlqk-Z1_VAssd5sBr-43" style="edgeStyle=orthogonalEdgeStyle;rounded=0;orthogonalLoop=1;jettySize=auto;html=1;entryX=0.25;entryY=1;entryDx=0;entryDy=0;" edge="1" parent="1" source="IPHOlqk-Z1_VAssd5sBr-35" target="IPHOlqk-Z1_VAssd5sBr-32">
          <mxGeometry relative="1" as="geometry">
            <Array as="points">
              <mxPoint x="143" y="660" />
            </Array>
          </mxGeometry>
        </mxCell>
        <mxCell id="IPHOlqk-Z1_VAssd5sBr-35" value="2&lt;div&gt;NILAI&lt;/div&gt;" style="shape=ellipse;html=1;dashed=0;whiteSpace=wrap;aspect=fixed;perimeter=ellipsePerimeter;strokeWidth=2;" vertex="1" parent="1">
          <mxGeometry x="390" y="560" width="110" height="110" as="geometry" />
        </mxCell>
        <mxCell id="IPHOlqk-Z1_VAssd5sBr-39" style="edgeStyle=orthogonalEdgeStyle;rounded=0;orthogonalLoop=1;jettySize=auto;html=1;" edge="1" parent="1" target="IPHOlqk-Z1_VAssd5sBr-33">
          <mxGeometry relative="1" as="geometry">
            <mxPoint x="490" y="430" as="sourcePoint" />
            <Array as="points">
              <mxPoint x="700" y="430" />
            </Array>
          </mxGeometry>
        </mxCell>
        <mxCell id="IPHOlqk-Z1_VAssd5sBr-41" style="edgeStyle=orthogonalEdgeStyle;rounded=0;orthogonalLoop=1;jettySize=auto;html=1;entryX=0.59;entryY=1.02;entryDx=0;entryDy=0;entryPerimeter=0;" edge="1" parent="1" source="IPHOlqk-Z1_VAssd5sBr-35" target="IPHOlqk-Z1_VAssd5sBr-33">
          <mxGeometry relative="1" as="geometry">
            <Array as="points">
              <mxPoint x="689" y="660" />
            </Array>
          </mxGeometry>
        </mxCell>
        <mxCell id="IPHOlqk-Z1_VAssd5sBr-44" value="Absen" style="html=1;dashed=0;whiteSpace=wrap;shape=partialRectangle;right=0;left=0;strokeWidth=2;" vertex="1" parent="1">
          <mxGeometry x="260" y="520" width="100" height="30" as="geometry" />
        </mxCell>
        <mxCell id="IPHOlqk-Z1_VAssd5sBr-45" value="Nilai" style="html=1;dashed=0;whiteSpace=wrap;shape=partialRectangle;right=0;left=0;strokeWidth=2;" vertex="1" parent="1">
          <mxGeometry x="260" y="690" width="100" height="30" as="geometry" />
        </mxCell>
        <mxCell id="IPHOlqk-Z1_VAssd5sBr-46" value="" style="endArrow=classic;startArrow=classic;html=1;rounded=0;exitX=1;exitY=0.25;exitDx=0;exitDy=0;" edge="1" parent="1" source="IPHOlqk-Z1_VAssd5sBr-44">
          <mxGeometry width="50" height="50" relative="1" as="geometry">
            <mxPoint x="375" y="520" as="sourcePoint" />
            <mxPoint x="405" y="500" as="targetPoint" />
          </mxGeometry>
        </mxCell>
        <mxCell id="IPHOlqk-Z1_VAssd5sBr-47" value="" style="endArrow=classic;startArrow=classic;html=1;rounded=0;exitX=1;exitY=0.25;exitDx=0;exitDy=0;" edge="1" parent="1">
          <mxGeometry width="50" height="50" relative="1" as="geometry">
            <mxPoint x="370" y="698" as="sourcePoint" />
            <mxPoint x="415" y="670" as="targetPoint" />
          </mxGeometry>
        </mxCell>
        <mxCell id="IPHOlqk-Z1_VAssd5sBr-49" value="&lt;font style=&quot;font-size: 10px;&quot;&gt;Data Mahasiswa&lt;/font&gt;" style="text;html=1;align=center;verticalAlign=middle;resizable=0;points=[];autosize=1;strokeColor=none;fillColor=none;" vertex="1" parent="1">
          <mxGeometry x="250" y="430" width="100" height="30" as="geometry" />
        </mxCell>
        <mxCell id="IPHOlqk-Z1_VAssd5sBr-50" value="&lt;font style=&quot;font-size: 10px;&quot;&gt;Laporan Absen&lt;/font&gt;" style="text;html=1;align=center;verticalAlign=middle;resizable=0;points=[];autosize=1;strokeColor=none;fillColor=none;" vertex="1" parent="1">
          <mxGeometry x="555" y="400" width="90" height="30" as="geometry" />
        </mxCell>
        <mxCell id="IPHOlqk-Z1_VAssd5sBr-51" value="&lt;font style=&quot;font-size: 10px;&quot;&gt;Data Absen&lt;/font&gt;" style="text;html=1;align=center;verticalAlign=middle;resizable=0;points=[];autosize=1;strokeColor=none;fillColor=none;" vertex="1" parent="1">
          <mxGeometry x="550" y="450" width="80" height="30" as="geometry" />
        </mxCell>
        <mxCell id="IPHOlqk-Z1_VAssd5sBr-52" value="&lt;font style=&quot;font-size: 10px;&quot;&gt;Data Mahasiswa&lt;/font&gt;" style="text;html=1;align=center;verticalAlign=middle;resizable=0;points=[];autosize=1;strokeColor=none;fillColor=none;" vertex="1" parent="1">
          <mxGeometry x="250" y="587" width="100" height="30" as="geometry" />
        </mxCell>
        <mxCell id="IPHOlqk-Z1_VAssd5sBr-53" style="edgeStyle=orthogonalEdgeStyle;rounded=0;orthogonalLoop=1;jettySize=auto;html=1;entryX=0.75;entryY=1;entryDx=0;entryDy=0;" edge="1" parent="1" source="IPHOlqk-Z1_VAssd5sBr-34" target="IPHOlqk-Z1_VAssd5sBr-32">
          <mxGeometry relative="1" as="geometry">
            <Array as="points">
              <mxPoint x="193" y="490" />
            </Array>
          </mxGeometry>
        </mxCell>
        <mxCell id="IPHOlqk-Z1_VAssd5sBr-54" value="&lt;font style=&quot;font-size: 10px;&quot;&gt;Data Absen&lt;/font&gt;" style="text;html=1;align=center;verticalAlign=middle;resizable=0;points=[];autosize=1;strokeColor=none;fillColor=none;" vertex="1" parent="1">
          <mxGeometry x="260" y="467" width="80" height="30" as="geometry" />
        </mxCell>
        <mxCell id="IPHOlqk-Z1_VAssd5sBr-55" value="&lt;font style=&quot;font-size: 10px;&quot;&gt;Laporan Nilai&lt;/font&gt;" style="text;html=1;align=center;verticalAlign=middle;resizable=0;points=[];autosize=1;strokeColor=none;fillColor=none;" vertex="1" parent="1">
          <mxGeometry x="535" y="660" width="80" height="30" as="geometry" />
        </mxCell>
        <mxCell id="IPHOlqk-Z1_VAssd5sBr-56" value="&lt;font style=&quot;font-size: 10px;&quot;&gt;Data Nilai&lt;/font&gt;" style="text;html=1;align=center;verticalAlign=middle;resizable=0;points=[];autosize=1;strokeColor=none;fillColor=none;" vertex="1" parent="1">
          <mxGeometry x="540" y="590" width="70" height="30" as="geometry" />
        </mxCell>
        <mxCell id="IPHOlqk-Z1_VAssd5sBr-57" value="&lt;font style=&quot;font-size: 10px;&quot;&gt;Data Nilai&lt;/font&gt;" style="text;html=1;align=center;verticalAlign=middle;resizable=0;points=[];autosize=1;strokeColor=none;fillColor=none;" vertex="1" parent="1">
          <mxGeometry x="260" y="638" width="70" height="30" as="geometry" />
        </mxCell>
      </root>
    </mxGraphModel>
  </diagram>
  <diagram id="O5Q2FlozP5_7dKw3kp5v" name="DFD Level 1">
    <mxGraphModel dx="1100" dy="543" grid="1" gridSize="10" guides="1" tooltips="1" connect="1" arrows="1" fold="1" page="1" pageScale="1" pageWidth="850" pageHeight="1100" math="0" shadow="0">
      <root>
        <mxCell id="0" />
        <mxCell id="1" parent="0" />
        <mxCell id="1gqbHv0cShv5_hrcugQi-30" style="edgeStyle=orthogonalEdgeStyle;rounded=0;orthogonalLoop=1;jettySize=auto;html=1;entryX=0;entryY=0.5;entryDx=0;entryDy=0;" edge="1" parent="1" source="1gqbHv0cShv5_hrcugQi-3" target="1gqbHv0cShv5_hrcugQi-7">
          <mxGeometry relative="1" as="geometry">
            <Array as="points">
              <mxPoint x="160" y="145" />
            </Array>
          </mxGeometry>
        </mxCell>
        <mxCell id="1gqbHv0cShv5_hrcugQi-3" value="MAHASISWA" style="html=1;dashed=0;whiteSpace=wrap;fillColor=#dae8fc;strokeColor=#6c8ebf;" vertex="1" parent="1">
          <mxGeometry x="110" y="250" width="100" height="50" as="geometry" />
        </mxCell>
        <mxCell id="1gqbHv0cShv5_hrcugQi-26" style="edgeStyle=orthogonalEdgeStyle;rounded=0;orthogonalLoop=1;jettySize=auto;html=1;entryX=0.5;entryY=0;entryDx=0;entryDy=0;" edge="1" parent="1" source="1gqbHv0cShv5_hrcugQi-5" target="1gqbHv0cShv5_hrcugQi-7">
          <mxGeometry relative="1" as="geometry" />
        </mxCell>
        <mxCell id="1gqbHv0cShv5_hrcugQi-5" value="DOSEN" style="html=1;dashed=0;whiteSpace=wrap;fillColor=#f8cecc;strokeColor=#b85450;" vertex="1" parent="1">
          <mxGeometry x="110" y="40" width="100" height="50" as="geometry" />
        </mxCell>
        <mxCell id="1gqbHv0cShv5_hrcugQi-27" style="edgeStyle=orthogonalEdgeStyle;rounded=0;orthogonalLoop=1;jettySize=auto;html=1;entryX=0.5;entryY=0;entryDx=0;entryDy=0;" edge="1" parent="1" source="1gqbHv0cShv5_hrcugQi-7" target="1gqbHv0cShv5_hrcugQi-12">
          <mxGeometry relative="1" as="geometry" />
        </mxCell>
        <mxCell id="1gqbHv0cShv5_hrcugQi-7" value="1.1&lt;div&gt;INPUT&lt;br&gt;&lt;div&gt;ABSEN&lt;/div&gt;&lt;/div&gt;" style="shape=ellipse;html=1;dashed=0;whiteSpace=wrap;aspect=fixed;perimeter=ellipsePerimeter;strokeWidth=2;" vertex="1" parent="1">
          <mxGeometry x="382" y="90" width="110" height="110" as="geometry" />
        </mxCell>
        <mxCell id="1gqbHv0cShv5_hrcugQi-29" style="edgeStyle=orthogonalEdgeStyle;rounded=0;orthogonalLoop=1;jettySize=auto;html=1;entryX=1;entryY=0.5;entryDx=0;entryDy=0;" edge="1" parent="1" source="1gqbHv0cShv5_hrcugQi-9" target="1gqbHv0cShv5_hrcugQi-3">
          <mxGeometry relative="1" as="geometry">
            <Array as="points" />
          </mxGeometry>
        </mxCell>
        <mxCell id="1gqbHv0cShv5_hrcugQi-31" style="edgeStyle=orthogonalEdgeStyle;rounded=0;orthogonalLoop=1;jettySize=auto;html=1;entryX=0;entryY=0.5;entryDx=0;entryDy=0;" edge="1" parent="1" source="1gqbHv0cShv5_hrcugQi-9" target="1gqbHv0cShv5_hrcugQi-5">
          <mxGeometry relative="1" as="geometry">
            <Array as="points">
              <mxPoint x="437" y="340" />
              <mxPoint x="90" y="340" />
              <mxPoint x="90" y="65" />
            </Array>
          </mxGeometry>
        </mxCell>
        <mxCell id="1gqbHv0cShv5_hrcugQi-9" value="1.2&lt;div&gt;LIHAT&lt;/div&gt;&lt;div&gt;ABSEN&lt;/div&gt;" style="shape=ellipse;html=1;dashed=0;whiteSpace=wrap;aspect=fixed;perimeter=ellipsePerimeter;strokeWidth=2;" vertex="1" parent="1">
          <mxGeometry x="382" y="220" width="110" height="110" as="geometry" />
        </mxCell>
        <mxCell id="1gqbHv0cShv5_hrcugQi-12" value="Absen" style="html=1;dashed=0;whiteSpace=wrap;shape=partialRectangle;right=0;left=0;strokeWidth=2;" vertex="1" parent="1">
          <mxGeometry x="537" y="200" width="100" height="30" as="geometry" />
        </mxCell>
        <mxCell id="1gqbHv0cShv5_hrcugQi-16" value="&lt;font style=&quot;font-size: 10px;&quot;&gt;Data Mahasiswa&lt;/font&gt;" style="text;html=1;align=center;verticalAlign=middle;resizable=0;points=[];autosize=1;strokeColor=none;fillColor=none;" vertex="1" parent="1">
          <mxGeometry x="500" y="110" width="100" height="30" as="geometry" />
        </mxCell>
        <mxCell id="1gqbHv0cShv5_hrcugQi-17" value="&lt;font style=&quot;font-size: 10px;&quot;&gt;Laporan Absen&lt;/font&gt;" style="text;html=1;align=center;verticalAlign=middle;resizable=0;points=[];autosize=1;strokeColor=none;fillColor=none;" vertex="1" parent="1">
          <mxGeometry x="242" y="310" width="90" height="30" as="geometry" />
        </mxCell>
        <mxCell id="1gqbHv0cShv5_hrcugQi-19" value="&lt;font style=&quot;font-size: 10px;&quot;&gt;Data Mahasiswa&lt;/font&gt;" style="text;html=1;align=center;verticalAlign=middle;resizable=0;points=[];autosize=1;strokeColor=none;fillColor=none;" vertex="1" parent="1">
          <mxGeometry x="242" y="110" width="100" height="30" as="geometry" />
        </mxCell>
        <mxCell id="1gqbHv0cShv5_hrcugQi-21" value="&lt;font style=&quot;font-size: 10px;&quot;&gt;Data Absen&lt;/font&gt;" style="text;html=1;align=center;verticalAlign=middle;resizable=0;points=[];autosize=1;strokeColor=none;fillColor=none;" vertex="1" parent="1">
          <mxGeometry x="252" y="30" width="80" height="30" as="geometry" />
        </mxCell>
        <mxCell id="1gqbHv0cShv5_hrcugQi-28" style="edgeStyle=orthogonalEdgeStyle;rounded=0;orthogonalLoop=1;jettySize=auto;html=1;exitX=0.25;exitY=1;exitDx=0;exitDy=0;" edge="1" parent="1" source="1gqbHv0cShv5_hrcugQi-12">
          <mxGeometry relative="1" as="geometry">
            <mxPoint x="490" y="280" as="targetPoint" />
            <Array as="points">
              <mxPoint x="587" y="230" />
              <mxPoint x="587" y="280" />
              <mxPoint x="492" y="280" />
            </Array>
          </mxGeometry>
        </mxCell>
        <mxCell id="1gqbHv0cShv5_hrcugQi-32" value="&lt;font style=&quot;font-size: 10px;&quot;&gt;Data Absen&lt;/font&gt;" style="text;html=1;align=center;verticalAlign=middle;resizable=0;points=[];autosize=1;strokeColor=none;fillColor=none;" vertex="1" parent="1">
          <mxGeometry x="500" y="250" width="80" height="30" as="geometry" />
        </mxCell>
        <mxCell id="1gqbHv0cShv5_hrcugQi-33" value="&lt;font style=&quot;font-size: 10px;&quot;&gt;Data Absen&lt;/font&gt;" style="text;html=1;align=center;verticalAlign=middle;resizable=0;points=[];autosize=1;strokeColor=none;fillColor=none;" vertex="1" parent="1">
          <mxGeometry x="252" y="248" width="80" height="30" as="geometry" />
        </mxCell>
        <mxCell id="1gqbHv0cShv5_hrcugQi-34" style="edgeStyle=orthogonalEdgeStyle;rounded=0;orthogonalLoop=1;jettySize=auto;html=1;entryX=0;entryY=0.5;entryDx=0;entryDy=0;" edge="1" parent="1" source="1gqbHv0cShv5_hrcugQi-35" target="1gqbHv0cShv5_hrcugQi-39">
          <mxGeometry relative="1" as="geometry">
            <Array as="points">
              <mxPoint x="160" y="525" />
            </Array>
          </mxGeometry>
        </mxCell>
        <mxCell id="1gqbHv0cShv5_hrcugQi-35" value="MAHASISWA" style="html=1;dashed=0;whiteSpace=wrap;fillColor=#dae8fc;strokeColor=#6c8ebf;" vertex="1" parent="1">
          <mxGeometry x="110" y="630" width="100" height="50" as="geometry" />
        </mxCell>
        <mxCell id="1gqbHv0cShv5_hrcugQi-36" style="edgeStyle=orthogonalEdgeStyle;rounded=0;orthogonalLoop=1;jettySize=auto;html=1;entryX=0.5;entryY=0;entryDx=0;entryDy=0;" edge="1" parent="1" source="1gqbHv0cShv5_hrcugQi-37" target="1gqbHv0cShv5_hrcugQi-39">
          <mxGeometry relative="1" as="geometry" />
        </mxCell>
        <mxCell id="1gqbHv0cShv5_hrcugQi-37" value="DOSEN" style="html=1;dashed=0;whiteSpace=wrap;fillColor=#f8cecc;strokeColor=#b85450;" vertex="1" parent="1">
          <mxGeometry x="110" y="420" width="100" height="50" as="geometry" />
        </mxCell>
        <mxCell id="1gqbHv0cShv5_hrcugQi-38" style="edgeStyle=orthogonalEdgeStyle;rounded=0;orthogonalLoop=1;jettySize=auto;html=1;entryX=0.5;entryY=0;entryDx=0;entryDy=0;" edge="1" parent="1" source="1gqbHv0cShv5_hrcugQi-39" target="1gqbHv0cShv5_hrcugQi-43">
          <mxGeometry relative="1" as="geometry" />
        </mxCell>
        <mxCell id="1gqbHv0cShv5_hrcugQi-39" value="1.1&lt;div&gt;INPUT&lt;br&gt;&lt;div&gt;NILAI&lt;/div&gt;&lt;/div&gt;" style="shape=ellipse;html=1;dashed=0;whiteSpace=wrap;aspect=fixed;perimeter=ellipsePerimeter;strokeWidth=2;" vertex="1" parent="1">
          <mxGeometry x="382" y="470" width="110" height="110" as="geometry" />
        </mxCell>
        <mxCell id="1gqbHv0cShv5_hrcugQi-40" style="edgeStyle=orthogonalEdgeStyle;rounded=0;orthogonalLoop=1;jettySize=auto;html=1;entryX=1;entryY=0.5;entryDx=0;entryDy=0;" edge="1" parent="1" source="1gqbHv0cShv5_hrcugQi-42" target="1gqbHv0cShv5_hrcugQi-35">
          <mxGeometry relative="1" as="geometry">
            <Array as="points" />
          </mxGeometry>
        </mxCell>
        <mxCell id="1gqbHv0cShv5_hrcugQi-41" style="edgeStyle=orthogonalEdgeStyle;rounded=0;orthogonalLoop=1;jettySize=auto;html=1;entryX=0;entryY=0.5;entryDx=0;entryDy=0;" edge="1" parent="1" source="1gqbHv0cShv5_hrcugQi-42" target="1gqbHv0cShv5_hrcugQi-37">
          <mxGeometry relative="1" as="geometry">
            <Array as="points">
              <mxPoint x="437" y="720" />
              <mxPoint x="90" y="720" />
              <mxPoint x="90" y="445" />
            </Array>
          </mxGeometry>
        </mxCell>
        <mxCell id="1gqbHv0cShv5_hrcugQi-42" value="1.2&lt;div&gt;LIHAT&lt;/div&gt;&lt;div&gt;NILAI&lt;/div&gt;" style="shape=ellipse;html=1;dashed=0;whiteSpace=wrap;aspect=fixed;perimeter=ellipsePerimeter;strokeWidth=2;" vertex="1" parent="1">
          <mxGeometry x="382" y="600" width="110" height="110" as="geometry" />
        </mxCell>
        <mxCell id="1gqbHv0cShv5_hrcugQi-43" value="Nilai" style="html=1;dashed=0;whiteSpace=wrap;shape=partialRectangle;right=0;left=0;strokeWidth=2;" vertex="1" parent="1">
          <mxGeometry x="537" y="580" width="100" height="30" as="geometry" />
        </mxCell>
        <mxCell id="1gqbHv0cShv5_hrcugQi-44" value="&lt;font style=&quot;font-size: 10px;&quot;&gt;Data Mahasiswa&lt;/font&gt;" style="text;html=1;align=center;verticalAlign=middle;resizable=0;points=[];autosize=1;strokeColor=none;fillColor=none;" vertex="1" parent="1">
          <mxGeometry x="500" y="490" width="100" height="30" as="geometry" />
        </mxCell>
        <mxCell id="1gqbHv0cShv5_hrcugQi-45" value="&lt;font style=&quot;font-size: 10px;&quot;&gt;Laporan Nilai&lt;/font&gt;" style="text;html=1;align=center;verticalAlign=middle;resizable=0;points=[];autosize=1;strokeColor=none;fillColor=none;" vertex="1" parent="1">
          <mxGeometry x="247" y="690" width="80" height="30" as="geometry" />
        </mxCell>
        <mxCell id="1gqbHv0cShv5_hrcugQi-46" value="&lt;font style=&quot;font-size: 10px;&quot;&gt;Data Mahasiswa&lt;/font&gt;" style="text;html=1;align=center;verticalAlign=middle;resizable=0;points=[];autosize=1;strokeColor=none;fillColor=none;" vertex="1" parent="1">
          <mxGeometry x="242" y="490" width="100" height="30" as="geometry" />
        </mxCell>
        <mxCell id="1gqbHv0cShv5_hrcugQi-47" value="&lt;font style=&quot;font-size: 10px;&quot;&gt;Data Nilai&lt;/font&gt;" style="text;html=1;align=center;verticalAlign=middle;resizable=0;points=[];autosize=1;strokeColor=none;fillColor=none;" vertex="1" parent="1">
          <mxGeometry x="257" y="410" width="70" height="30" as="geometry" />
        </mxCell>
        <mxCell id="1gqbHv0cShv5_hrcugQi-48" style="edgeStyle=orthogonalEdgeStyle;rounded=0;orthogonalLoop=1;jettySize=auto;html=1;exitX=0.25;exitY=1;exitDx=0;exitDy=0;" edge="1" parent="1" source="1gqbHv0cShv5_hrcugQi-43">
          <mxGeometry relative="1" as="geometry">
            <mxPoint x="490" y="660" as="targetPoint" />
            <Array as="points">
              <mxPoint x="587" y="610" />
              <mxPoint x="587" y="660" />
              <mxPoint x="492" y="660" />
            </Array>
          </mxGeometry>
        </mxCell>
        <mxCell id="1gqbHv0cShv5_hrcugQi-49" value="&lt;font style=&quot;font-size: 10px;&quot;&gt;Data Nilai&lt;/font&gt;" style="text;html=1;align=center;verticalAlign=middle;resizable=0;points=[];autosize=1;strokeColor=none;fillColor=none;" vertex="1" parent="1">
          <mxGeometry x="505" y="630" width="70" height="30" as="geometry" />
        </mxCell>
        <mxCell id="1gqbHv0cShv5_hrcugQi-50" value="&lt;font style=&quot;font-size: 10px;&quot;&gt;Data Nilai&lt;/font&gt;" style="text;html=1;align=center;verticalAlign=middle;resizable=0;points=[];autosize=1;strokeColor=none;fillColor=none;" vertex="1" parent="1">
          <mxGeometry x="257" y="628" width="70" height="30" as="geometry" />
        </mxCell>
      </root>
    </mxGraphModel>
  </diagram>
</mxfile>
